<svg xmlns="http://www.w3.org/2000/svg" viewBox="0 0 512 512" role="img" aria-label="DRQ logo">
  <circle cx="256" cy="256" r="248" fill="#000"/>
  <circle cx="256" cy="256" r="224" fill="none" stroke="#fff" stroke-width="10" opacity="0.9"/>
  <text x="256" y="156" text-anchor="middle" fill="#fff" font-family="Arial, Helvetica, sans-serif" font-size="76" font-weight="700" letter-spacing="3">DRQ</text>
  <path d="M122 176h72c68 0 116 36 116 110 0 72-47 118-118 118h-70V176zm70 168c39 0 62-24 62-58 0-36-23-56-62-56h-16v114h16z" fill="#fff"/>
  <path d="M292 176h64l86 228h-62l-17-46h-77l-16 46h-60l82-228zm56 136-23-68-24 68h47z" fill="#fff"/>
  <circle cx="408" cy="388" r="56" fill="#fff"/>
  <circle cx="408" cy="388" r="22" fill="#000"/>
  <path d="M436 416l34 34" stroke="#fff" stroke-width="20" stroke-linecap="round"/>
</svg>
